<svg xmlns="http://www.w3.org/2000/svg" viewBox="0 0 1200 630" role="img" aria-labelledby="title desc">
  <title id="title">Swapnil Lohar — C/C++ developer and 3D researcher</title>
  <desc id="desc">A dark technical portfolio preview with an electric teal torus and the phrase Building from first principles.</desc>
  <rect width="1200" height="630" fill="#070A12"/>
  <path d="M0 96H1200M0 192H1200M0 288H1200M0 384H1200M0 480H1200M96 0V630M192 0V630M288 0V630M384 0V630M480 0V630M576 0V630M672 0V630M768 0V630M864 0V630M960 0V630M1056 0V630M1152 0V630" fill="none" stroke="#0F1624" stroke-width="1"/>
  <circle cx="930" cy="280" r="174" fill="none" stroke="#2DD4BF" stroke-opacity=".24" stroke-width="2"/>
  <circle cx="930" cy="280" r="122" fill="none" stroke="#F59E0B" stroke-opacity=".44" stroke-width="2"/>
  <path d="M820 280c0-80 49-128 110-128s110 48 110 128-49 128-110 128-110-48-110-128Z" fill="none" stroke="#2DD4BF" stroke-width="18" opacity=".72"/>
  <text x="80" y="112" fill="#2DD4BF" font-family="monospace" font-size="22" letter-spacing="4">PORTFOLIO / 2026</text>
  <text x="80" y="236" fill="#E6EDF7" font-family="sans-serif" font-size="70" font-weight="700">Swapnil Lohar</text>
  <text x="80" y="300" fill="#E6EDF7" font-family="sans-serif" font-size="42">C/C++ developer and</text>
  <text x="80" y="354" fill="#2DD4BF" font-family="sans-serif" font-size="42" font-style="italic">3D researcher.</text>
  <text x="80" y="502" fill="#8A97AD" font-family="monospace" font-size="22">Building from first principles.</text>
</svg>
